<?xml version="1.0" encoding="UTF-8" standalone="no"?><!DOCTYPE svg PUBLIC "-//W3C//DTD SVG 1.1//EN" "http://www.w3.org/Graphics/SVG/1.1/DTD/svg11.dtd"><svg width="100%" height="100%" viewBox="0 0 320 229" version="1.1" xmlns="http://www.w3.org/2000/svg" xmlns:xlink="http://www.w3.org/1999/xlink" xml:space="preserve" xmlns:serif="http://www.serif.com/" style="fill-rule:evenodd;clip-rule:evenodd;stroke-linejoin:round;stroke-miterlimit:1.41421;"><rect id="Plan-de-travail1" serif:id="Plan de travail1" x="0" y="0" width="319.754" height="228.27" style="fill:none;"/><clipPath id="_clip1"><rect x="0" y="0" width="319.754" height="228.27"/></clipPath><g clip-path="url(#_clip1)"><path d="M154.832,0.09c45.619,0 82.657,37.037 82.657,82.657c0,45.62 -37.038,82.657 -82.657,82.657c-45.62,0 -82.657,-37.037 -82.657,-82.657c0,-45.62 37.037,-82.657 82.657,-82.657Zm50.598,128.137c-12.357,14.035 -30.451,22.892 -50.598,22.892c-20.148,0 -38.242,-8.857 -50.599,-22.892c12.557,13.678 30.584,22.256 50.599,22.256c20.014,0 38.041,-8.578 50.598,-22.256Zm-79.402,-9.794l0,-1.665c0,0 0,0 0,0c-0.616,0 -1.188,-0.318 -1.512,-0.842c-0.323,-0.524 -0.353,-1.179 -0.077,-1.73l7.585,-15.16c16.494,14.536 43.942,37.957 43.942,37.957l7.049,-12.343c0,0 -32.281,-20.987 -48.191,-31.209l5.08,-10.154c16.802,-0.892 44.714,-3.982 54.549,-13.988c11.05,-11.24 15.533,-51.029 -67.866,-27.664l-0.718,-3.749l-16.206,10.557l18.959,3.829l-0.845,-4.415c16.408,-2.817 65.426,-9.635 56.723,11.197c-4.419,10.577 -25.997,16.076 -41.839,18.722l10.023,-20.033c0.829,-1.655 2.521,-2.701 4.372,-2.701c0,0 0,0 0,0l0,-1.664l-16.184,0l0,1.664c0,0 0,0 0.001,0c0.667,0 1.287,0.346 1.638,0.913c0.352,0.568 0.384,1.276 0.087,1.874l-10.696,21.467c-3.119,0.363 -5.355,0.552 -6.229,0.616c-7.79,0.567 -7.672,5.729 -5.593,8.185c0.588,0.694 2.405,2.407 5.047,4.797l-10.386,20.844c-0.925,1.857 -2.821,3.03 -4.896,3.03c0,0 0,0 0,0l0,1.665l16.183,0Zm3.72,-34.814c-0.959,0.008 -1.721,0.006 -2.254,-0.002c-5.36,-0.078 -4.072,2.708 -1.025,4.52c0.184,0.109 0.449,0.271 0.788,0.482l2.491,-5Zm-42.323,-3.032l-0.006,-0.48c0,-37.206 30.207,-67.412 67.413,-67.412c37.205,0 67.412,30.206 67.412,67.412l-0.006,0.48c-0.252,-36.983 -30.359,-66.932 -67.406,-66.932c-37.048,0 -67.155,29.949 -67.407,66.932Z" style="fill:#d7a940;"/><path d="M83.539,199.539c7.71,-1.288 18.212,-3.964 20.362,-9.112c4.236,-10.139 -19.621,-6.82 -27.607,-5.45l0.411,2.149l-9.227,-1.863l7.888,-5.139l0.349,1.825c40.591,-11.372 38.409,7.993 33.031,13.464c-4.787,4.87 -18.372,6.374 -26.55,6.808l-2.472,4.942c7.743,4.975 23.455,15.189 23.455,15.189l-3.431,6.008c0,0 -13.359,-11.399 -21.387,-18.474l-3.692,7.379c-0.134,0.268 -0.119,0.586 0.038,0.841c0.158,0.255 0.436,0.41 0.736,0.41c0,0 0,0 0,0l0,0.811l-7.876,0l0,-0.811c0,0 0,0 0,0c1.01,0 1.933,-0.571 2.383,-1.475l5.054,-10.144c-1.285,-1.163 -2.17,-1.997 -2.456,-2.335c-1.012,-1.195 -1.069,-3.708 2.722,-3.984c0.426,-0.031 1.514,-0.123 3.032,-0.299l5.206,-10.448c0.144,-0.291 0.129,-0.636 -0.042,-0.912c-0.171,-0.277 -0.473,-0.445 -0.798,-0.445c0,0 0,0 0,0l0,-0.81l7.876,0l0,0.81l0,0c-0.901,0 -1.724,0.509 -2.127,1.315l-4.878,9.75Zm-6.285,2.844c-0.467,0.004 -0.838,0.003 -1.098,-0.001c-2.608,-0.038 -1.981,1.318 -0.498,2.199c0.089,0.053 0.218,0.132 0.383,0.235l1.213,-2.433Z" style="fill:#d7a940;"/><path d="M263.724,15.424l-6.088,72.9c0,0 -1.257,25.331 -0.6,46.575c0.656,21.244 2.307,30.163 -6.527,29.861c-9.234,-0.315 -6.864,-10.091 -4.375,-30.465c2.085,-17.074 4.744,-35.252 4.206,-41.652c-0.538,-6.4 -1.216,-6.196 -1.216,-6.196c0,0 -4.383,-1.362 -4.291,-2.592c0.093,-1.229 1.451,-28.069 3.851,-40.99c2.4,-12.921 5.187,-22.157 7.584,-26.135c2.218,-3.683 4.513,-4.695 6.079,-4.253c1.268,0.358 1.232,2.159 1.377,2.947Z" style="fill:#d7a940;"/><path d="M55.552,143.245c-0.767,-25.863 -4.439,-70.874 -5.094,-72.241c-1.452,-3.034 -3.126,-2.483 -6.486,-5.79c-3.359,-3.307 -3.189,-14.094 -2.961,-21.129c0.228,-7.036 0.217,-23.366 0.222,-23.858c0.008,-0.664 1.13,-1.042 1.303,0.061c0.157,1.003 1.752,25.951 2.09,28.102c0.326,2.07 2.39,1.297 2.421,0.015c0.031,-1.283 -1.813,-27.757 -1.883,-28.368c-0.093,-0.81 1.447,-1.108 1.523,0.001c0.119,1.757 2.805,26.361 3.04,28.617c0.129,1.237 2.24,1.601 2.246,-0.073c0.007,-2.216 -2.443,-27.231 -2.263,-28.818c0.113,-0.991 1.335,-0.99 1.516,0.021c0.186,1.035 3.2,27.205 3.296,27.987c0.156,1.283 2.37,1.073 2.203,-0.404c-0.145,-1.286 -3.07,-22.051 -2.871,-28.003c0.03,-0.886 1.173,-1.036 1.348,-0.359c0.363,1.404 3.598,19.574 4.497,24.784c0.898,5.209 2.309,14.74 0.65,19.43c-0.854,2.414 -3.726,3.674 -4.362,6.882c-0.288,1.45 9.405,46.776 14.41,70.951c1.992,9.618 6.158,22.589 -3.529,24.175c-9.688,1.585 -10.947,-9.583 -11.316,-21.983Z" style="fill:#d7a940;"/><path d="M22.972,218.26l-8.594,0c-0.327,-0.024 -0.558,-0.355 -0.421,-0.684l0.503,-0.996c0.177,-0.296 0.143,-0.208 0.637,-0.301c1.819,-0.358 2.76,-2.593 3.731,-4.51c2.667,-5.29 5.311,-10.59 7.966,-15.885c0.586,-1.182 1.354,-2.393 1.397,-3.663c0.016,-0.505 -0.632,-0.652 -1.287,-0.694c0,0 -0.585,-0.213 -0.391,-0.683l0.503,-0.995c0.141,-0.237 0.171,-0.242 0.42,-0.259l8.594,0c0.023,0.002 0.046,0.004 0.068,0.005c0.305,0.068 0.477,0.382 0.353,0.679l-0.503,0.996c-0.229,0.378 -0.242,0.222 -0.717,0.33c-1.845,0.432 -2.734,2.66 -3.655,4.487c-2.696,5.383 -5.402,10.761 -8.09,16.148c-0.548,1.107 -1.273,2.246 -1.273,3.443c0,0.476 0.658,0.595 1.298,0.645c0,0 0.569,0.236 0.385,0.683l-0.503,0.995c-0.141,0.237 -0.172,0.241 -0.421,0.259Z" style="fill:#d7a940;"/><path d="M53.011,189.673l0.081,0.007c0.257,0.052 0.461,0.257 0.527,0.509c0.004,0.017 0.008,0.033 0.011,0.05c0.572,6.252 1.312,12.493 1.658,18.641c0.035,0.182 0.146,0.204 0.251,0.167c0.1,-0.035 0.109,-0.098 0.109,-0.098c0.77,-1.648 1.567,-3.287 2.378,-4.921c0.571,-1.153 1.149,-2.303 1.73,-3.452c0.761,-1.507 1.525,-3.013 2.284,-4.521l0.05,-0.102c0.51,-1.023 1.069,-2.045 1.287,-3.175c0.011,-0.059 0.011,-0.059 0.021,-0.118c0.054,-0.412 -0.335,-0.627 -0.658,-0.695c-0.052,-0.01 -0.104,-0.019 -0.156,-0.026c-0.078,-0.01 -0.093,-0.014 -0.254,-0.02c-0.384,-0.009 -0.724,-0.464 -0.59,-0.857c0.294,-0.589 0.525,-1.34 1.078,-1.389c2.508,0 5.02,-0.135 7.524,0c0.42,0.033 0.721,0.529 0.562,0.91c-0.15,0.344 -0.308,0.687 -0.507,1.004c-0.228,0.353 -0.703,0.354 -1.108,0.495c-0.877,0.305 -1.474,1.034 -1.938,1.792c-0.481,0.786 -0.877,1.642 -1.298,2.477c-3.675,7.316 -6.96,14.84 -11.001,21.961c-0.115,0.195 -0.329,0.326 -0.555,0.345c-0.978,0 -1.957,0.051 -2.934,-0.001c-0.307,-0.023 -0.562,-0.264 -0.619,-0.564c-0.634,-6.854 -1.469,-13.747 -1.841,-20.659c-0.042,-0.223 -0.215,-0.293 -0.359,-0.07l-0.153,0.326c-2.321,4.933 -4.795,9.81 -7.25,14.708c-0.511,1.019 -1.203,2.039 -1.317,3.186c-0.047,0.467 0.173,0.713 0.486,0.767c0.217,0.038 0.156,0.022 0.254,0.03c0.148,0.011 0.367,0.026 0.367,0.026c0.285,0.157 0.712,0.527 0.543,0.915c-0.287,0.568 -0.516,1.297 -1.06,1.335c-2.503,0.134 -5.018,0.135 -7.521,0c-0.302,-0.022 -0.559,-0.286 -0.603,-0.586c-0.057,-0.387 0.315,-0.867 0.547,-1.325l0.005,-0.007c0.174,-0.258 0.537,-0.273 0.847,-0.377c1.08,-0.364 1.877,-1.287 2.42,-2.27c0.062,-0.112 0.122,-0.225 0.181,-0.338c0.049,-0.093 0.096,-0.187 0.144,-0.28c2.926,-5.805 5.789,-11.671 8.764,-17.476c0.572,-1.105 1.347,-2.26 1.352,-3.518c-0.002,-0.289 -0.193,-0.42 -0.399,-0.472c-0.211,-0.053 -0.711,-0.083 -0.711,-0.083c-0.281,-0.15 -0.722,-0.52 -0.55,-0.916c0.287,-0.569 0.517,-1.287 1.056,-1.335l6.865,0Z" style="fill:#d7a940;"/><path d="M122.295,218.26l-19.057,0c-0.328,-0.026 -0.554,-0.359 -0.421,-0.684l0.503,-0.996c0.207,-0.339 0.138,-0.207 0.637,-0.301c1.88,-0.371 2.79,-2.652 3.731,-4.51c2.687,-5.331 5.365,-10.667 8.029,-16.01c0.545,-1.104 1.161,-2.271 1.318,-3.366c0.078,-0.547 -0.585,-0.823 -1.271,-0.866c0,0 -0.61,-0.144 -0.392,-0.683l0.503,-0.995c0.147,-0.242 0.248,-0.245 0.419,-0.259c6.595,-0.025 13.18,-0.012 19.769,0c0,0 0.647,0.13 0.42,0.684l-3.154,6.236c-0.147,0.243 -0.248,0.245 -0.421,0.259l-2.062,0c-0.221,-0.018 -0.227,-0.052 -0.286,-0.096c-0.23,-0.176 -0.158,-0.546 -0.098,-0.829c0.215,-1.023 0.581,-2.153 0.195,-3.075c-0.196,-0.467 -0.922,-0.446 -1.628,-0.448l-6.711,0l-4.832,9.7c1.993,0 4.112,0.362 5.559,-0.582c0.851,-0.554 1.504,-1.364 2.154,-2.167c0,0 0.094,-0.155 0.366,-0.176l1.955,0c0,0 0.068,0.005 0.146,0.024c0.199,0.082 0.195,0.114 0.236,0.172c0.096,0.132 0.143,0.24 0.037,0.492l-4.023,7.8c-0.148,0.239 -0.248,0.242 -0.419,0.255l-1.826,0c-0.226,-0.018 -0.232,-0.054 -0.291,-0.1c-0.514,-0.404 0.409,-1.839 0.176,-2.671c-0.105,-0.373 -0.769,-0.315 -1.422,-0.316l-4.005,0l-5.417,10.777c1.903,0 3.805,0.012 5.708,0c1.767,-0.021 3.42,-0.852 4.725,-2.187c0.884,-0.904 1.675,-1.896 2.473,-2.879c0,0 0.111,-0.155 0.366,-0.174l2.084,0c0.329,0.026 0.563,0.359 0.416,0.694l-3.774,7.028c-0.09,0.14 -0.15,0.228 -0.415,0.249Z" style="fill:#d7a940;"/><path d="M158.677,196.546l-2.062,0c-0.333,-0.025 -0.521,-0.271 -0.417,-0.778c0.298,-1.488 0.525,-3.286 -1.388,-3.668c-3.424,-0.683 -7.4,1.455 -8.153,5.065c-0.254,1.217 0.244,2.453 1.202,3.407c1.538,1.53 3.552,2.662 4.57,4.641c1.528,2.972 -0.022,6.94 -2.476,9.454c-2.574,2.637 -6.368,3.934 -10.07,3.917c-2.687,-0.012 -5.397,-0.337 -7.963,-1.042c-0.189,-0.052 -0.565,-0.307 -0.406,-0.695l2.786,-5.586c0.14,-0.239 0.171,-0.244 0.422,-0.261l2.062,0c0,0 0.066,0.004 0.142,0.021c0.403,0.162 0.356,0.404 0.276,0.718c-0.018,0.071 -0.018,0.071 -0.035,0.143c-0.245,1.054 -0.413,2.26 0.31,3.093c0.787,0.905 2.128,0.921 3.199,0.897c2.371,-0.053 4.741,-1.077 6.068,-3.021c1.212,-1.774 1.71,-4.113 0.394,-5.792c-1.811,-2.308 -5.303,-3.368 -5.629,-7.184c-0.341,-3.974 2.989,-7.866 6.841,-9.483c4.021,-1.688 8.734,-1.357 12.837,-0.063c0.534,0.169 0.67,0.349 0.514,0.735l-2.602,5.22c-0.14,0.239 -0.171,0.244 -0.422,0.262Z" style="fill:#d7a940;"/><path d="M168.532,197.378l-2.062,0c-0.328,-0.025 -0.554,-0.358 -0.421,-0.683l3.445,-6.845c0.141,-0.238 0.171,-0.242 0.421,-0.26l22.43,0c0.024,0.002 0.049,0.004 0.073,0.006c0.296,0.071 0.503,0.297 0.348,0.677l-3.591,7.15c-0.141,0.238 -0.172,0.243 -0.422,0.26l-2.062,0c-0.786,-0.06 -0.478,-0.502 -0.33,-1.067c0.074,-0.285 0.146,-0.569 0.215,-0.855c0.244,-1.004 0.708,-2.126 0.286,-3.017c-0.21,-0.444 -0.924,-0.422 -1.549,-0.423l-2.888,0l-9.899,19.769c-0.554,1.084 -1.157,2.177 -1.332,3.39c-0.005,0.035 -0.009,0.069 -0.012,0.104c-0.044,0.523 0.759,0.676 1.534,0.739c0,0 0.576,0.218 0.383,0.683l-0.503,0.995c-0.141,0.237 -0.171,0.241 -0.421,0.259l-9.045,0c-0.325,-0.026 -0.558,-0.35 -0.42,-0.684l0.503,-0.996c0.188,-0.315 0.276,-0.237 0.658,-0.295c1.954,-0.311 2.972,-2.613 3.99,-4.645l0.057,-0.115l9.586,-19.204c-1.614,0 -3.326,-0.179 -4.661,0.673c-1.601,1.022 -2.752,2.635 -3.935,4.198c0,0 -0.175,0.171 -0.376,0.186Z" style="fill:#d7a940;"/><path d="M211.824,189.391c2.218,0.019 4.598,0.543 5.929,2.344c1.73,2.341 1.056,5.801 0.069,8.596c-2.777,7.863 -8.289,15.236 -16.101,17.535c-3.968,1.168 -8.964,1.139 -10.771,-2.513c-1.214,-2.453 -0.425,-5.489 0.475,-7.96c3.27,-8.97 10.045,-17.296 19.226,-17.963c0.39,-0.028 0.781,-0.04 1.173,-0.039Zm-1.106,2.547c-4.705,0.069 -8.493,4.532 -11.251,8.859c-2.377,3.727 -4.791,7.752 -4.815,12.175c-0.001,0.102 0.001,0.204 0.006,0.306c0.052,1.121 0.666,2.307 1.84,2.666c2.707,0.828 5.735,-0.895 7.788,-2.683c4.589,-3.997 7.768,-9.844 9.279,-15.338c0.09,-0.328 0.173,-0.659 0.243,-0.992c0.053,-0.252 0.099,-0.506 0.135,-0.762c0.027,-0.194 0.049,-0.389 0.064,-0.584c0.011,-0.144 0.018,-0.289 0.021,-0.434c0.002,-0.113 0,-0.226 -0.004,-0.339c-0.045,-1.139 -0.665,-2.365 -1.894,-2.711c-0.458,-0.129 -0.939,-0.166 -1.412,-0.163Z" style="fill:#d7a940;"/><path d="M229.972,188.544c0.028,0.004 0.05,0.003 0.134,0.033l4.138,1.685c0.316,0.147 0.381,0.601 0.092,0.824l-9.482,6.6c-0.198,0.126 -0.279,0.109 -0.447,0.05l-2.129,-0.867c-0.289,-0.135 -0.376,-0.528 -0.154,-0.771l7.472,-7.419c0.157,-0.142 0.161,-0.145 0.376,-0.135Z" style="fill:#d7a940;"/><path d="M255.161,196.749l-2.063,0c-0.692,-0.051 -0.28,-1.276 -0.262,-2.22c0.013,-0.677 -0.073,-1.413 -0.518,-1.857c-0.556,-0.557 -1.425,-0.635 -2.254,-0.636c-2.931,-0.001 -5.557,2.108 -7.705,4.373c-2.825,2.979 -5.01,6.553 -6.637,10.35c-1.002,2.337 -2.081,4.922 -1.522,7.289c0.105,0.445 0.319,0.871 0.666,1.169c0.95,0.819 2.342,0.706 3.472,0.565c2.808,-0.348 5.072,-2.46 6.932,-4.788c0,0 0.175,-0.163 0.369,-0.177l2.062,0c0,0 0.063,0.004 0.135,0.019c0.267,0.102 0.432,0.307 0.288,0.661l-2.857,5.769c-0.12,0.204 -0.393,0.269 -0.606,0.32c-2.979,0.696 -6.06,1.123 -9.112,0.986c-2.318,-0.104 -4.734,-0.988 -5.746,-3.245c-1.483,-3.309 0.084,-7.198 1.341,-9.961c3.466,-7.62 9.246,-14.614 17.422,-15.918c3.119,-0.498 6.353,-0.095 9.38,0.838c0.168,0.051 0.564,0.302 0.4,0.698l-2.764,5.505c-0.141,0.238 -0.171,0.242 -0.421,0.26Z" style="fill:#d7a940;"/><path d="M263.149,218.26l-8.594,0c-0.331,-0.029 -0.587,-0.272 -0.421,-0.684l0.503,-0.996c0.208,-0.339 0.149,-0.209 0.637,-0.301c1.844,-0.364 2.773,-2.619 3.731,-4.51c2.666,-5.29 5.311,-10.59 7.966,-15.885c0.586,-1.182 1.354,-2.393 1.397,-3.663c0.017,-0.503 -0.629,-0.652 -1.287,-0.694c0,0 -0.61,-0.144 -0.391,-0.683l0.503,-0.995c0.147,-0.242 0.248,-0.245 0.42,-0.259l8.594,0c0.33,0.028 0.591,0.261 0.421,0.684l-0.503,0.996c-0.23,0.379 -0.246,0.223 -0.717,0.33c-1.456,0.34 -2.311,1.894 -3.062,3.328c-0.242,0.464 -0.478,0.931 -0.713,1.398l-2.917,5.797c1.828,-0.028 3.439,-1.216 4.964,-2.3c2.667,-1.894 5.44,-3.738 7.608,-6.097c0.432,-0.47 0.868,-0.986 1.03,-1.592c0.093,-0.346 -0.411,-0.565 -0.917,-0.607c0,0 -0.596,-0.154 -0.381,-0.683l0.503,-0.995c0.088,-0.145 0.149,-0.237 0.42,-0.259l9.217,0c0,0 0.073,0.005 0.157,0.027c0.371,0.168 0.405,0.308 0.264,0.657l-0.503,0.996c-0.19,0.311 -0.25,0.226 -0.553,0.288c-1.501,0.32 -2.788,1.331 -4.095,2.263c-0.584,0.416 -1.161,0.842 -1.735,1.271l-10.161,7.506c0.666,3.868 1.148,7.887 2.028,11.568c0.183,0.766 0.495,1.556 1.215,1.909c0.381,0.186 0.976,0.27 0.976,0.27c0.379,0.163 0.415,0.307 0.273,0.661l-0.503,0.995c-0.148,0.242 -0.248,0.245 -0.421,0.259l-8.293,0c-0.23,-0.02 -0.236,-0.057 -0.296,-0.105c-0.166,-0.134 -0.209,-0.37 -0.125,-0.579l0.503,-0.996c0.43,-0.697 1.924,0.792 1.306,-3.391c-0.362,-2.199 -0.72,-4.398 -1.085,-6.596c-0.143,-0.838 -0.289,-1.762 -1.089,-1.882c-0.22,-0.033 -0.443,-0.04 -0.665,-0.04l-0.911,0l-3.71,7.416c-0.573,1.158 -1.347,2.352 -1.347,3.591c0.001,0.478 0.658,0.595 1.299,0.645c0,0 0.589,0.178 0.384,0.683l-0.503,0.995c-0.089,0.145 -0.149,0.237 -0.421,0.259Z" style="fill:#d7a940;"/></g></svg>