<?xml version="1.0" encoding="UTF-8" standalone="no"?>
<svg
   xmlns:serif="http://www.serif.com/"
   xmlns:osb="http://www.openswatchbook.org/uri/2009/osb"
   xmlns:dc="http://purl.org/dc/elements/1.1/"
   xmlns:cc="http://creativecommons.org/ns#"
   xmlns:rdf="http://www.w3.org/1999/02/22-rdf-syntax-ns#"
   xmlns:svg="http://www.w3.org/2000/svg"
   xmlns="http://www.w3.org/2000/svg"
   xmlns:xlink="http://www.w3.org/1999/xlink"
   xmlns:sodipodi="http://sodipodi.sourceforge.net/DTD/sodipodi-0.dtd"
   xmlns:inkscape="http://www.inkscape.org/namespaces/inkscape"
   width="100%"
   height="100%"
   viewBox="0 0 226 168"
   version="1.1"
   xml:space="preserve"
   style="fill-rule:evenodd;clip-rule:evenodd;stroke-linejoin:round;stroke-miterlimit:1.41421;"
   id="svg2"
   inkscape:version="0.91 r13725"
   sodipodi:docname="logoNavP.svg"><metadata
     id="metadata16"><rdf:RDF><cc:Work
         rdf:about=""><dc:format>image/svg+xml</dc:format><dc:type
           rdf:resource="http://purl.org/dc/dcmitype/StillImage" /><dc:title></dc:title></cc:Work></rdf:RDF></metadata><defs
     id="defs14"><linearGradient
       id="linearGradient5606"
       osb:paint="solid"><stop
         style="stop-color:#75688b;stop-opacity:1;"
         offset="0"
         id="stop5608" /></linearGradient><linearGradient
       id="linearGradient5600"
       osb:paint="solid"><stop
         style="stop-color:#75688b;stop-opacity:1;"
         offset="0"
         id="stop5602" /></linearGradient><linearGradient
       id="linearGradient5594"
       osb:paint="solid"><stop
         style="stop-color:#75688b;stop-opacity:1;"
         offset="0"
         id="stop5596" /></linearGradient><linearGradient
       inkscape:collect="always"
       xlink:href="#linearGradient5594"
       id="linearGradient5598"
       x1="33.408"
       y1="83.683"
       x2="198.722"
       y2="83.683"
       gradientUnits="userSpaceOnUse" /><linearGradient
       inkscape:collect="always"
       xlink:href="#linearGradient5600"
       id="linearGradient5604"
       x1="205.12611"
       y1="89.510248"
       x2="224.958"
       y2="89.510248"
       gradientUnits="userSpaceOnUse" /><linearGradient
       inkscape:collect="always"
       xlink:href="#linearGradient5606"
       id="linearGradient5610"
       x1="2.1388455"
       y1="92.917294"
       x2="34.249207"
       y2="92.917294"
       gradientUnits="userSpaceOnUse" /></defs><sodipodi:namedview
     pagecolor="#ffffff"
     bordercolor="#666666"
     borderopacity="1"
     objecttolerance="10"
     gridtolerance="10"
     guidetolerance="10"
     inkscape:pageopacity="0"
     inkscape:pageshadow="2"
     inkscape:window-width="1920"
     inkscape:window-height="996"
     id="namedview12"
     showgrid="false"
     inkscape:zoom="1.4026549"
     inkscape:cx="-0.71293375"
     inkscape:cy="84"
     inkscape:window-x="0"
     inkscape:window-y="25"
     inkscape:window-maximized="1"
     inkscape:current-layer="svg2" /><rect
     id="Plan-de-travail1"
     serif:id="Plan de travail1"
     x="0"
     y="0"
     width="225.398"
     height="167.033"
     style="fill:none;" /><path
     d="M116.065,1.026c45.62,0 82.657,37.038 82.657,82.657c0,45.62 -37.037,82.657 -82.657,82.657c-45.62,0 -82.657,-37.037 -82.657,-82.657c0,-45.619 37.037,-82.657 82.657,-82.657Zm50.598,128.137c-12.356,14.035 -30.451,22.893 -50.598,22.893c-20.147,0 -38.242,-8.858 -50.598,-22.893c12.557,13.678 30.584,22.256 50.598,22.256c20.015,0 38.042,-8.578 50.598,-22.256Zm-79.401,-9.794l0,-1.664c0,0 0,0 0,0c-0.616,0 -1.188,-0.319 -1.512,-0.843c-0.324,-0.524 -0.353,-1.179 -0.078,-1.729l7.585,-15.16c16.495,14.535 43.942,37.956 43.942,37.956l7.049,-12.343c0,0 -32.281,-20.987 -48.191,-31.209l5.08,-10.153c16.802,-0.892 44.714,-3.983 54.55,-13.988c11.05,-11.241 15.533,-51.03 -67.867,-27.664l-0.717,-3.75l-16.207,10.557l18.959,3.829l-0.844,-4.415c16.408,-2.816 65.425,-9.635 56.723,11.197c-4.419,10.577 -25.997,16.077 -41.839,18.722l10.023,-20.033c0.828,-1.655 2.52,-2.701 4.371,-2.701c0,0 0,0 0,0l0,-1.664l-16.183,0l0,1.664c0,0 0,0 0,0c0.668,0 1.288,0.346 1.639,0.913c0.351,0.568 0.384,1.277 0.086,1.874l-10.696,21.467c-3.119,0.363 -5.354,0.553 -6.229,0.616c-7.789,0.567 -7.672,5.729 -5.592,8.186c0.587,0.693 2.405,2.406 5.046,4.796l-10.385,20.844c-0.925,1.857 -2.822,3.031 -4.897,3.031c0,0 0,0 0,0l0,1.664l16.184,0Zm3.719,-34.814c-0.958,0.009 -1.72,0.006 -2.254,-0.001c-5.36,-0.079 -4.072,2.708 -1.024,4.519c0.183,0.109 0.448,0.271 0.787,0.482l2.491,-5Zm-42.322,-3.032l-0.006,-0.48c0,-37.206 30.206,-67.412 67.412,-67.412c37.206,0 67.413,30.206 67.413,67.412l-0.007,0.48c-0.251,-36.983 -30.359,-66.932 -67.406,-66.932c-37.047,0 -67.154,29.949 -67.406,66.932Z"
     style="fill:url(#linearGradient5598);fill-opacity:1;opacity:1"
     id="path5" /><path
     d="M224.958,16.36l-6.088,72.9c0,0 -1.257,25.331 -0.601,46.575c0.657,21.244 2.307,30.163 -6.526,29.862c-9.234,-0.315 -6.864,-10.092 -4.376,-30.466c2.085,-17.073 4.744,-35.251 4.207,-41.651c-0.538,-6.401 -1.216,-6.197 -1.216,-6.197c0,0 -4.384,-1.362 -4.291,-2.591c0.092,-1.23 1.45,-28.07 3.85,-40.991c2.401,-12.92 5.187,-22.157 7.584,-26.135c2.219,-3.683 4.513,-4.695 6.079,-4.253c1.268,0.358 1.233,2.159 1.378,2.947Z"
     style="fill:url(#linearGradient5604);fill-opacity:1"
     id="path7" /><path
     d="M16.786,144.181c-0.768,-25.863 -4.44,-70.874 -5.094,-72.241c-1.453,-3.034 -3.127,-2.483 -6.486,-5.79c-3.359,-3.307 -3.189,-14.094 -2.961,-21.129c0.228,-7.035 0.216,-23.366 0.222,-23.857c0.007,-0.665 1.13,-1.043 1.302,0.06c0.157,1.003 1.752,25.951 2.09,28.102c0.326,2.07 2.391,1.297 2.422,0.015c0.031,-1.283 -1.814,-27.757 -1.884,-28.368c-0.092,-0.81 1.448,-1.108 1.523,0.001c0.12,1.757 2.805,26.361 3.041,28.617c0.129,1.237 2.24,1.601 2.245,-0.073c0.007,-2.216 -2.443,-27.231 -2.262,-28.818c0.113,-0.991 1.334,-0.99 1.516,0.021c0.186,1.035 3.2,27.205 3.295,27.987c0.156,1.283 2.371,1.073 2.204,-0.404c-0.145,-1.286 -3.071,-22.051 -2.871,-28.002c0.029,-0.887 1.172,-1.037 1.347,-0.36c0.364,1.404 3.599,19.575 4.497,24.784c0.899,5.21 2.31,14.741 0.651,19.431c-0.854,2.413 -3.727,3.674 -4.363,6.881c-0.287,1.45 9.405,46.776 14.411,70.952c1.992,9.618 6.158,22.589 -3.53,24.174c-9.687,1.585 -10.947,-9.583 -11.315,-21.983Z"
     style="fill:url(#linearGradient5610);fill-opacity:1"
     id="path9" /><rect
     id="Plan-de-travail2"
     serif:id="Plan de travail2"
     x="0"
     y="0.936"
     width="225.398"
     height="167.398"
     style="fill:none;" /></svg>