<?xml version="1.0" standalone="no"?>
<!DOCTYPE svg PUBLIC "-//W3C//DTD SVG 20010904//EN"
 "http://www.w3.org/TR/2001/REC-SVG-20010904/DTD/svg10.dtd">
<svg version="1.0" xmlns="http://www.w3.org/2000/svg"
 width="904.000000pt" height="904.000000pt" viewBox="0 0 904.000000 904.000000"
 preserveAspectRatio="xMidYMid meet">
<metadata>
Created by potrace 1.11, written by Peter Selinger 2001-2013
</metadata>
<g transform="translate(0.000000,904.000000) scale(0.100000,-0.100000)"
fill="#000000" stroke="none">
<path d="M4448 7835 c-2 -2 -40 -5 -85 -9 -98 -7 -307 -38 -413 -62 -41 -9
-91 -19 -111 -23 -19 -4 -40 -10 -46 -14 -5 -3 -23 -9 -39 -11 -42 -8 -226
-69 -319 -106 -114 -45 -392 -176 -405 -191 -3 -3 -25 -16 -50 -30 -125 -68
-398 -262 -492 -351 -22 -21 -42 -38 -45 -38 -8 0 -255 -251 -303 -309 -46
-54 -66 -78 -101 -119 -10 -12 -19 -26 -19 -31 0 -5 -4 -11 -8 -13 -9 -4 -132
-173 -132 -182 0 -4 -5 -12 -10 -19 -58 -68 -254 -439 -285 -537 -1 -3 -7 -18
-14 -35 -6 -16 -23 -61 -37 -100 -14 -38 -33 -88 -41 -110 -8 -22 -15 -42 -14
-45 0 -3 -7 -28 -15 -56 -8 -28 -16 -60 -19 -70 -2 -11 -8 -34 -14 -52 -5 -18
-10 -35 -10 -37 1 -5 -4 -29 -17 -85 -3 -14 -7 -38 -10 -55 -2 -16 -8 -55 -14
-85 -25 -143 -43 -363 -43 -520 0 -99 12 -342 19 -373 2 -12 7 -42 9 -67 3
-25 9 -70 15 -100 5 -30 12 -68 15 -85 2 -16 7 -39 9 -50 11 -51 37 -161 40
-170 1 -5 8 -30 15 -55 7 -25 26 -88 44 -140 17 -52 32 -97 32 -100 1 -3 6
-16 12 -30 6 -14 25 -61 43 -105 17 -44 38 -91 45 -105 7 -14 34 -68 60 -120
26 -52 68 -130 94 -173 25 -43 50 -87 56 -98 5 -10 13 -19 17 -19 5 0 8 -5 8
-11 0 -13 90 -142 102 -147 4 -2 8 -8 8 -13 0 -8 23 -38 129 -168 107 -132
363 -386 375 -373 3 3 6 0 6 -5 0 -19 305 -253 329 -253 5 0 11 -4 13 -8 9
-25 377 -225 518 -282 30 -12 69 -28 85 -35 33 -15 172 -64 195 -70 8 -2 47
-14 85 -25 64 -20 105 -31 175 -46 14 -3 41 -9 60 -14 19 -5 52 -11 74 -14 21
-4 41 -8 45 -10 3 -2 29 -7 56 -10 28 -3 64 -8 80 -10 42 -6 148 -17 204 -22
133 -11 462 -4 596 12 28 4 61 8 75 9 28 3 79 12 125 22 17 3 41 7 55 8 36 4
164 34 244 57 38 11 76 21 86 23 18 4 190 62 230 78 14 6 27 11 30 12 3 1 22
9 44 18 21 9 40 17 42 17 2 0 31 13 64 29 33 16 60 26 60 23 0 -4 4 -2 8 3 4
6 30 21 57 34 85 40 226 122 328 190 54 36 106 71 115 76 9 6 21 16 25 23 4 6
14 12 22 12 7 0 15 3 17 8 2 4 23 23 48 42 25 19 50 39 56 45 6 5 32 28 59 50
101 82 312 300 421 433 10 13 27 33 37 44 9 12 17 24 17 27 0 3 10 17 23 31
31 35 147 206 147 218 0 6 4 12 8 14 34 14 288 534 307 630 2 9 9 26 15 37 6
12 8 21 4 21 -3 0 -2 6 4 13 26 32 116 405 138 577 2 19 6 51 9 70 13 90 18
211 19 395 0 260 -13 406 -59 645 -14 75 -32 147 -57 234 -11 38 -21 76 -23
85 -5 23 -58 175 -84 241 -32 79 -134 304 -141 310 -4 3 -17 28 -31 55 -13 28
-26 52 -29 55 -3 3 -16 25 -29 50 -25 47 -157 246 -175 266 -6 7 -20 24 -31
40 -96 135 -241 295 -406 450 -46 42 -79 71 -191 163 -58 48 -246 181 -255
181 -3 0 -20 10 -37 23 -17 13 -51 34 -76 48 -25 13 -47 27 -50 30 -9 11 -270
139 -270 132 0 -3 -8 1 -17 9 -37 30 -393 155 -542 189 -25 6 -55 13 -66 15
-21 5 -136 28 -190 38 -16 4 -50 8 -75 11 -25 3 -62 8 -82 11 -20 3 -56 8 -80
10 -46 5 -496 13 -500 9z m408 -510 c32 -3 79 -8 103 -10 24 -2 60 -7 80 -10
20 -3 50 -8 66 -10 17 -3 41 -7 55 -10 14 -3 36 -8 50 -11 131 -25 367 -101
495 -159 17 -7 37 -15 45 -17 8 -2 17 -5 20 -8 3 -3 57 -32 120 -64 63 -32
141 -76 173 -97 32 -22 60 -39 63 -39 2 0 46 -31 98 -69 243 -180 400 -337
609 -611 38 -50 77 -110 77 -118 0 -5 9 -17 20 -27 11 -10 20 -22 20 -27 0 -5
12 -27 27 -50 40 -65 140 -270 171 -353 6 -16 17 -43 23 -60 7 -16 13 -34 15
-40 1 -5 16 -53 34 -105 17 -52 33 -108 36 -125 2 -16 7 -39 10 -50 4 -16 3
-17 -5 -5 -5 8 -11 29 -14 45 -5 34 -82 269 -94 288 -4 7 -8 15 -8 18 0 11
-48 114 -103 224 -30 61 -60 120 -66 132 -6 13 -14 23 -18 23 -5 0 -8 5 -8 10
0 14 -120 190 -188 275 -68 85 -74 92 -156 180 -36 39 -66 73 -66 78 0 4 -4 7
-9 7 -5 0 -29 19 -53 43 -24 23 -67 62 -97 87 -30 25 -59 50 -65 55 -6 6 -22
18 -36 27 -14 10 -43 31 -65 47 -22 16 -67 47 -100 67 -33 21 -62 40 -65 43
-8 10 -92 56 -195 108 -107 54 -307 139 -347 147 -7 2 -20 6 -28 9 -12 5 -96
30 -145 43 -48 14 -241 53 -285 59 -30 4 -63 9 -73 11 -50 9 -217 18 -337 18
-222 -1 -372 -17 -570 -61 -41 -9 -79 -17 -85 -18 -5 -1 -12 -3 -15 -4 -3 -2
-13 -4 -22 -7 -10 -2 -26 -6 -35 -8 -10 -3 -19 -5 -20 -5 -2 -1 -4 -1 -5 -1
-9 2 -252 -87 -292 -106 -28 -13 -56 -24 -63 -24 -7 0 -13 -5 -13 -12 0 -6 -3
-9 -6 -5 -8 8 -213 -100 -309 -163 -12 -8 -50 -33 -84 -54 -33 -21 -61 -43
-61 -47 0 -5 -7 -9 -15 -9 -8 0 -15 -4 -15 -8 0 -4 -13 -16 -30 -25 -16 -10
-35 -23 -42 -30 -7 -7 -44 -39 -82 -72 -161 -140 -300 -293 -444 -490 -34 -47
-101 -155 -106 -173 -4 -12 -11 -22 -15 -22 -5 0 -14 -15 -22 -32 -7 -18 -15
-35 -18 -38 -3 -3 -23 -41 -45 -85 -21 -44 -42 -88 -47 -97 -26 -50 -105 -272
-134 -378 -10 -36 -22 -69 -26 -74 -4 -5 -1 15 7 45 9 30 18 63 21 74 13 50
76 241 82 250 4 6 16 33 26 60 10 28 36 86 59 130 22 44 43 87 46 95 4 13 33
64 83 145 83 136 213 308 302 401 16 18 39 42 51 55 37 42 167 163 224 210 30
24 61 50 68 57 21 19 193 137 232 159 19 11 59 35 89 52 171 102 413 204 606
256 85 22 97 25 125 31 14 2 36 7 50 10 14 3 36 8 50 10 14 3 36 7 50 10 25 5
75 12 140 20 19 2 76 7 125 10 50 3 91 7 92 8 5 4 253 -3 309 -9z m629 -869
c50 -4 101 -10 115 -12 14 -3 39 -7 55 -10 519 -84 821 -371 809 -769 -4 -122
-21 -211 -55 -292 -10 -22 -15 -44 -12 -47 4 -3 1 -6 -5 -6 -7 0 -12 -7 -12
-15 0 -26 -83 -155 -139 -217 -92 -101 -250 -199 -431 -268 -47 -18 -99 -39
-117 -46 -17 -8 -35 -14 -40 -14 -5 0 -39 -9 -74 -21 -35 -12 -75 -23 -89 -26
-14 -2 -43 -9 -65 -16 -22 -6 -44 -12 -50 -13 -5 -1 -12 -3 -15 -4 -3 -1 -14
-3 -24 -5 -11 -2 -51 -11 -90 -19 -39 -9 -83 -18 -99 -20 -15 -3 -53 -9 -85
-15 -31 -5 -73 -12 -92 -15 -19 -3 -44 -7 -55 -10 -11 -2 -45 -7 -76 -10 -31
-4 -65 -8 -75 -10 -34 -7 -167 -21 -287 -31 -44 -4 -87 -8 -97 -10 -16 -3
-157 -13 -275 -19 -23 -1 -46 -6 -53 -10 -7 -4 -57 -96 -111 -205 l-99 -196
77 -49 c82 -53 199 -129 295 -192 33 -22 67 -43 76 -49 91 -56 296 -191 298
-197 2 -5 8 -8 13 -8 5 0 63 -36 130 -80 66 -44 122 -80 124 -80 3 0 30 -18
62 -39 136 -92 245 -161 253 -161 5 0 10 -3 12 -7 4 -10 65 -53 73 -53 4 0 25
-13 48 -29 23 -16 116 -77 207 -136 91 -59 186 -121 212 -138 l46 -31 -24 -45
c-14 -25 -29 -53 -34 -61 -37 -58 -99 -170 -104 -188 -4 -12 -12 -22 -17 -22
-5 0 -9 -4 -9 -9 0 -5 -21 -45 -47 -89 -45 -77 -48 -80 -65 -64 -9 9 -25 24
-35 32 -58 50 -252 215 -273 233 -35 31 -149 129 -184 158 -16 13 -43 36 -60
51 -54 48 -59 52 -166 144 -58 50 -115 99 -128 110 -13 10 -38 33 -56 49 -18
17 -51 45 -74 63 -23 19 -52 44 -65 55 -12 12 -47 42 -76 67 -30 25 -65 56
-80 70 -14 14 -58 52 -96 85 -39 33 -75 64 -81 70 -6 5 -33 29 -60 52 -27 23
-58 50 -70 60 -11 10 -49 43 -84 73 -34 30 -81 72 -104 92 -37 33 -59 37 -62
10 0 -4 -67 -140 -149 -303 -162 -322 -165 -333 -105 -367 21 -12 30 -25 30
-43 0 -15 -6 -29 -12 -31 -11 -4 -612 -3 -629 1 -3 0 -6 14 -7 30 -1 26 4 30
36 36 109 20 121 38 360 516 116 235 212 431 212 436 0 5 -17 23 -37 40 -21
17 -70 62 -108 100 -77 75 -107 137 -99 203 5 46 46 105 83 121 17 8 31 17 31
20 0 6 102 30 145 34 11 1 47 5 80 8 33 4 87 9 120 12 33 4 60 7 61 8 5 5 268
533 268 537 2 12 51 105 59 111 5 3 8 9 8 13 -1 3 10 29 24 56 14 27 24 51 23
52 -1 2 10 24 25 49 34 57 33 103 -2 130 -13 10 -29 19 -35 19 -7 0 -11 14
-11 33 l1 32 322 2 322 1 0 -34 c0 -28 -4 -34 -20 -34 -28 0 -94 -35 -121 -63
-20 -21 -433 -836 -427 -842 2 -2 46 5 98 16 52 10 109 20 125 23 17 3 100 21
185 41 85 20 164 38 175 40 71 14 439 134 468 152 6 4 17 8 22 9 6 1 53 22
105 47 274 130 426 265 497 440 20 48 26 81 27 147 1 103 -19 153 -87 217 -44
42 -156 104 -212 118 -16 5 -34 9 -40 11 -32 10 -105 26 -134 30 -19 2 -46 6
-60 9 -132 23 -438 32 -671 20 -131 -7 -241 -14 -285 -19 -22 -3 -69 -7 -105
-10 -71 -7 -141 -15 -180 -22 -14 -2 -50 -6 -80 -9 -73 -7 -150 -18 -245 -35
-27 -5 -68 -11 -90 -14 -51 -7 -109 -17 -112 -20 -1 0 5 -35 13 -76 18 -97 18
-104 -3 -95 -10 4 -31 9 -48 12 -16 2 -61 11 -100 19 -38 8 -81 17 -95 20 -14
2 -50 10 -80 16 -30 6 -62 12 -70 14 -8 1 -37 7 -65 13 -27 6 -63 13 -80 16
-16 3 -40 7 -52 10 -37 8 -56 12 -95 19 -21 4 -38 11 -38 16 0 6 4 10 8 10 4
0 17 7 27 15 11 9 85 58 165 109 80 52 150 99 157 105 7 6 14 11 17 11 2 0 45
27 95 60 50 33 95 60 101 60 5 0 10 4 10 8 0 7 42 32 54 32 2 0 6 -19 10 -42
4 -24 9 -52 11 -63 2 -11 4 -24 4 -29 1 -10 8 -8 166 34 66 17 127 33 135 35
8 2 33 8 55 13 22 6 52 13 67 16 15 2 31 7 35 9 10 6 306 68 398 83 6 1 12 3
15 4 9 3 34 7 80 13 25 4 54 8 65 11 11 2 43 7 70 10 28 4 64 9 80 11 17 3 53
7 80 10 28 3 68 8 90 10 22 3 75 7 118 9 43 2 80 6 82 8 6 6 348 1 440 -6z
m-3475 -1263 c-11 -17 -11 -17 -6 0 3 10 6 24 7 30 0 9 2 9 5 0 3 -7 0 -20 -6
-30z m5268 12 c-3 -3 -9 2 -12 12 -6 14 -5 15 5 6 7 -7 10 -15 7 -18z m12 -36
c0 -6 -4 -7 -10 -4 -5 3 -10 11 -10 16 0 6 5 7 10 4 6 -3 10 -11 10 -16z
m-5280 -9 c0 -5 -5 -10 -11 -10 -5 0 -7 5 -4 10 3 6 8 10 11 10 2 0 4 -4 4
-10z m-17 -55 c-3 -9 -8 -14 -10 -11 -3 3 -2 9 2 15 9 16 15 13 8 -4z m5316
-50 c0 -5 -4 -3 -9 5 -5 8 -9 22 -9 30 0 16 17 -16 18 -35z m-5344 -174 c3 -5
2 -12 -3 -15 -5 -3 -9 1 -9 9 0 17 3 19 12 6z m846 -2358 c13 -16 12 -17 -3
-4 -10 7 -18 15 -18 17 0 8 8 3 21 -13z m3664 -13 c-3 -5 -12 -10 -18 -10 -7
0 -6 4 3 10 19 12 23 12 15 0z m-3624 -17 c13 -16 12 -17 -3 -4 -17 13 -22 21
-14 21 2 0 10 -8 17 -17z m3584 -13 c-3 -5 -12 -10 -18 -10 -7 0 -6 4 3 10 19
12 23 12 15 0z m-3439 -105 c69 -53 147 -107 173 -122 25 -15 48 -30 51 -33
14 -14 238 -129 360 -183 37 -16 201 -76 260 -95 103 -32 320 -79 450 -97 179
-24 558 -24 690 -1 14 3 43 7 65 10 32 4 177 30 220 40 6 2 28 7 50 11 49 11
47 10 65 18 8 3 80 27 160 53 80 26 147 50 150 54 3 4 16 11 30 15 26 8 171
79 275 135 60 32 287 181 315 207 25 23 92 73 98 73 7 0 9 2 -69 -61 -68 -55
-104 -82 -144 -109 -95 -63 -144 -96 -171 -111 -17 -9 -42 -23 -55 -31 -13 -7
-27 -17 -31 -23 -4 -5 -8 -6 -8 -2 0 5 -15 -2 -32 -15 -18 -13 -34 -22 -36
-20 -1 1 -34 -14 -72 -33 -39 -19 -70 -32 -70 -29 0 4 -8 0 -17 -8 -10 -8 -27
-18 -38 -21 -11 -3 -58 -20 -105 -37 -132 -49 -282 -90 -417 -115 -16 -3 -37
-7 -49 -9 -12 -2 -43 -7 -70 -10 -27 -4 -65 -9 -84 -11 -50 -7 -215 -17 -280
-17 -57 0 -280 11 -315 16 -11 2 -47 6 -80 11 -33 4 -69 9 -80 11 -11 2 -31 6
-45 9 -297 56 -616 178 -880 335 -66 39 -203 130 -210 139 -3 4 -21 18 -40 31
-19 13 -37 27 -40 30 -3 3 -29 25 -59 48 -100 79 -43 43 85 -53z"/>
<path d="M3453 4484 c-21 -8 -39 -14 -39 -14 -1 0 -4 -7 -8 -15 -12 -33 22
-83 88 -128 42 -28 66 -23 66 13 0 10 3 20 8 22 8 3 62 114 62 127 0 13 -135
9 -177 -5z"/>
<path d="M8863 7335 c-93 -39 -188 -177 -253 -365 -12 -36 -26 -74 -30 -85
-11 -27 -60 -194 -66 -225 -2 -14 -7 -32 -10 -40 -3 -8 -8 -26 -10 -40 -3 -14
-10 -43 -16 -65 -5 -22 -12 -48 -14 -57 -2 -10 -6 -28 -9 -40 -3 -13 -8 -36
-11 -53 -3 -16 -9 -48 -14 -70 -5 -22 -11 -53 -14 -70 -3 -16 -8 -41 -11 -55
-3 -14 -8 -41 -11 -60 -2 -19 -11 -73 -19 -120 -8 -47 -17 -110 -20 -140 -3
-30 -8 -73 -11 -95 -6 -46 -11 -95 -18 -176 -3 -31 -8 -72 -11 -90 -3 -19 -7
-68 -10 -109 -3 -41 -8 -104 -11 -140 -8 -88 -11 -127 -19 -255 -3 -60 -8
-126 -10 -145 -7 -69 -18 -266 -19 -316 0 -32 5 -57 14 -66 16 -14 106 -60
128 -64 36 -7 50 -43 67 -179 17 -131 5 -396 -31 -695 -2 -19 -6 -60 -10 -90
-3 -30 -8 -68 -10 -85 -6 -30 -8 -50 -18 -150 -3 -28 -8 -66 -11 -84 -3 -19
-8 -53 -10 -75 -7 -69 -15 -129 -21 -171 -9 -61 -12 -87 -19 -161 -4 -37 -9
-77 -11 -88 -7 -38 -23 -164 -40 -311 -4 -44 -23 -185 -29 -225 -2 -14 -7 -54
-11 -90 -3 -36 -8 -78 -10 -95 -41 -388 -10 -552 116 -612 51 -24 87 -30 156
-28 158 5 226 86 249 300 6 46 6 368 0 500 -15 395 -19 558 -18 970 0 590 15
1161 38 1405 1 19 6 69 9 110 3 41 8 102 11 135 3 33 8 87 10 120 12 144 22
266 30 345 2 30 7 89 10 130 3 41 7 95 10 120 2 25 7 77 10 115 3 39 7 95 10
125 3 30 7 84 10 120 2 36 7 85 9 110 3 25 8 79 11 120 8 113 14 178 20 250 4
36 8 88 10 115 5 66 14 176 21 250 3 33 7 83 9 110 3 46 10 128 19 236 2 24 7
80 11 124 3 44 8 100 10 125 5 54 -8 117 -28 137 -20 20 -67 24 -104 8z"/>
<path d="M613 7088 c-13 -17 -8 -166 11 -353 3 -27 8 -70 10 -95 7 -71 16
-152 21 -190 11 -95 17 -147 21 -170 11 -72 37 -290 38 -325 1 -35 -2 -41 -27
-49 -38 -14 -54 6 -62 74 -3 30 -8 66 -10 80 -3 14 -7 52 -10 85 -6 57 -9 85
-19 165 -2 19 -7 60 -10 90 -7 54 -9 76 -20 175 -4 28 -8 64 -10 80 -3 17 -8
62 -11 100 -4 39 -9 79 -12 90 -2 11 -6 43 -9 70 -6 59 -12 108 -14 115 -3 8
-7 24 -8 38 -2 15 -38 16 -48 0 -4 -6 -7 -32 -6 -57 1 -43 3 -70 17 -221 2
-30 7 -80 10 -110 2 -30 7 -89 10 -130 4 -41 8 -91 10 -110 2 -19 6 -73 9
-120 4 -47 9 -101 11 -120 3 -19 7 -73 10 -120 3 -47 7 -105 10 -130 5 -55
-10 -99 -33 -95 -9 2 -22 4 -29 4 -19 1 -27 36 -38 156 -3 39 -9 90 -12 115
-6 50 -8 76 -17 170 -4 36 -8 79 -11 95 -4 35 -14 121 -20 185 -3 25 -7 61 -9
80 -2 19 -7 67 -10 105 -3 39 -8 79 -10 90 -2 11 -7 58 -11 105 -7 93 -22 123
-53 104 -9 -7 -16 -22 -15 -35 1 -13 5 -69 9 -124 3 -55 8 -122 10 -150 2 -27
6 -86 9 -130 3 -44 8 -107 10 -140 2 -33 4 -60 4 -60 1 0 4 -43 7 -95 3 -52 7
-115 9 -140 2 -25 6 -104 10 -176 l6 -131 -25 -16 c-23 -15 -26 -15 -48 3 -20
16 -25 29 -27 77 -1 32 -4 72 -7 88 -5 42 -18 206 -29 380 -2 39 -7 100 -10
138 -3 37 -7 97 -10 135 -3 37 -7 101 -11 142 -5 66 -11 150 -13 201 -1 20
-30 34 -43 21 -7 -7 -18 -672 -20 -1199 -1 -258 22 -435 69 -541 19 -42 124
-149 169 -172 16 -8 38 -23 48 -32 11 -10 23 -18 27 -18 16 0 70 -91 74 -123
2 -17 6 -59 10 -92 3 -33 8 -73 10 -90 2 -16 7 -68 10 -115 4 -47 8 -96 11
-110 2 -14 6 -59 9 -100 3 -41 7 -95 10 -120 10 -108 16 -189 20 -250 3 -36 7
-90 9 -120 3 -30 8 -95 11 -145 3 -49 8 -115 10 -145 8 -100 17 -224 20 -285
4 -86 15 -259 21 -335 3 -36 7 -108 10 -160 2 -52 6 -129 9 -170 5 -98 14
-291 20 -460 14 -363 18 -419 39 -585 34 -257 140 -424 287 -450 178 -32 327
55 365 214 9 37 10 248 1 301 -16 94 -38 206 -47 240 -5 19 -11 49 -14 65 -3
17 -7 39 -10 50 -2 11 -14 67 -26 125 -12 58 -26 122 -31 143 -6 21 -12 50
-14 65 -2 15 -13 70 -24 122 -12 52 -24 111 -27 130 -3 19 -8 38 -10 41 -2 3
-5 19 -8 35 -3 16 -15 74 -26 129 -12 55 -23 109 -26 120 -2 11 -9 45 -15 75
-7 30 -13 64 -15 75 -4 29 -13 69 -30 144 -9 36 -18 77 -20 91 -2 14 -5 34 -8
45 -8 36 -35 160 -39 185 -3 14 -8 36 -11 50 -3 14 -8 37 -11 53 -10 55 -16
82 -20 97 -3 8 -7 33 -11 55 -3 22 -8 43 -10 46 -2 4 -6 24 -10 44 -9 57 -12
74 -17 83 -3 4 -8 29 -11 56 -4 27 -9 52 -11 55 -1 3 -6 22 -9 41 -3 19 -22
112 -41 205 -19 94 -37 181 -39 195 -3 14 -9 45 -15 70 -10 45 -20 96 -26 135
-11 72 -17 102 -21 113 -12 38 -15 115 -4 147 11 32 73 118 119 165 30 30 60
116 67 188 15 170 5 311 -41 617 -2 11 -6 38 -10 60 -3 22 -10 60 -15 85 -5
25 -14 72 -19 105 -13 77 -20 115 -25 140 -5 25 -18 103 -22 130 -2 11 -10 56
-18 100 -8 44 -18 94 -21 110 -3 17 -9 50 -14 75 -5 25 -15 74 -21 110 -23
134 -39 164 -67 128z"/>
</g>
</svg>
